<?xml version="1.0" encoding="UTF-8" standalone="no"?><!DOCTYPE svg PUBLIC "-//W3C//DTD SVG 1.1//EN" "http://www.w3.org/Graphics/SVG/1.1/DTD/svg11.dtd"><svg width="100%" height="100%" viewBox="0 0 842 821" version="1.1" xmlns="http://www.w3.org/2000/svg" xmlns:xlink="http://www.w3.org/1999/xlink" xml:space="preserve" xmlns:serif="http://www.serif.com/" style="fill-rule:evenodd;clip-rule:evenodd;stroke-linejoin:round;stroke-miterlimit:2;"><rect id="Stars" x="0" y="0" width="841.89" height="820.401" style="fill:none;"/><path d="M182.829,44.876c3.601,-9.922 13.027,-16.53 23.583,-16.53c10.555,0 19.982,6.608 23.583,16.53l33.108,91.23c0.011,0.029 0.03,0.054 0.055,0.073c0.025,0.018 0.054,0.028 0.085,0.029l96.997,3.296c10.549,0.359 19.746,7.282 23.007,17.321c3.262,10.039 -0.108,21.046 -8.432,27.537l-76.535,59.68c-0.024,0.019 -0.042,0.044 -0.051,0.074c-0.01,0.029 -0.011,0.061 -0.002,0.09l26.838,93.268c2.919,10.144 -0.823,21.03 -9.363,27.234c-8.539,6.205 -20.049,6.4 -28.795,0.489l-80.409,-54.346c-0.025,-0.017 -0.056,-0.026 -0.086,-0.026c-0.031,-0 -0.061,0.009 -0.087,0.026l-80.409,54.346c-8.746,5.911 -20.255,5.716 -28.795,-0.489c-8.54,-6.204 -12.282,-17.09 -9.363,-27.234l26.838,-93.268c0.009,-0.029 0.008,-0.061 -0.001,-0.09c-0.01,-0.03 -0.028,-0.055 -0.052,-0.074l-76.534,-59.68c-8.324,-6.491 -11.695,-17.498 -8.433,-27.537c3.262,-10.039 12.458,-16.962 23.008,-17.321l96.996,-3.296c0.031,-0.001 0.061,-0.011 0.086,-0.029c0.025,-0.019 0.044,-0.044 0.054,-0.073l33.109,-91.23Z" style="fill:#b3d241;"/><path d="M184.789,464.483c3.314,-9.085 11.952,-15.129 21.623,-15.129c9.67,-0 18.309,6.044 21.622,15.129l30.519,83.68l89.016,3.167c9.664,0.344 18.082,6.692 21.071,15.889c2.988,9.197 -0.092,19.281 -7.708,25.239l-70.153,54.885l24.495,85.637c2.659,9.297 -0.777,19.265 -8.6,24.949c-7.823,5.684 -18.365,5.872 -26.386,0.47l-73.876,-49.76l-73.877,49.76c-8.02,5.402 -18.562,5.214 -26.386,-0.47c-7.823,-5.684 -11.259,-15.652 -8.6,-24.949l24.496,-85.637l-70.154,-54.885c-7.616,-5.958 -10.696,-16.042 -7.707,-25.239c2.988,-9.197 11.406,-15.545 21.07,-15.889l89.016,-3.167l30.519,-83.68Z" style="fill:#6e8621;"/><path d="M184.789,464.483c3.314,-9.085 11.952,-15.129 21.623,-15.129c9.67,-0 18.309,6.044 21.622,15.129l30.519,83.68l89.016,3.167c9.664,0.344 18.082,6.692 21.071,15.889c2.988,9.197 -0.092,19.281 -7.708,25.239l-70.153,54.885l24.495,85.637c2.659,9.297 -0.777,19.265 -8.6,24.949c-7.823,5.684 -18.365,5.872 -26.386,0.47l-73.876,-49.76l-73.877,49.76c-8.02,5.402 -18.562,5.214 -26.386,-0.47c-7.823,-5.684 -11.259,-15.652 -8.6,-24.949l24.496,-85.637l-70.154,-54.885c-7.616,-5.958 -10.696,-16.042 -7.707,-25.239c2.988,-9.197 11.406,-15.545 21.07,-15.889l89.016,-3.167l30.519,-83.68Zm9.395,3.426l-30.519,83.681c-1.395,3.825 -4.97,6.422 -9.039,6.567l-89.016,3.167c-5.465,0.194 -10.226,3.784 -11.916,8.985c-1.69,5.201 0.052,10.904 4.359,14.273l70.153,54.885c3.207,2.508 4.573,6.711 3.453,10.626l-24.495,85.637c-1.504,5.258 0.439,10.895 4.863,14.109c4.424,3.215 10.386,3.321 14.922,0.266l73.876,-49.76c3.377,-2.275 7.796,-2.275 11.173,-0l73.877,49.76c4.535,3.055 10.497,2.949 14.921,-0.266c4.424,-3.214 6.367,-8.851 4.864,-14.109l-24.496,-85.637c-1.12,-3.915 0.246,-8.118 3.453,-10.626l70.153,-54.885c4.308,-3.369 6.049,-9.072 4.359,-14.273c-1.69,-5.201 -6.451,-8.791 -11.916,-8.985l-89.015,-3.167c-4.069,-0.145 -7.644,-2.742 -9.039,-6.567l-30.52,-83.681c-1.873,-5.137 -6.759,-8.555 -12.227,-8.555c-5.469,-0 -10.354,3.418 -12.228,8.555Z"/><path d="M611.909,44.838c3.611,-9.902 13.028,-16.492 23.569,-16.492c10.541,0 19.958,6.59 23.569,16.492l33.268,91.216l97.031,3.452c10.534,0.375 19.711,7.294 22.968,17.319c3.257,10.025 -0.099,21.017 -8.401,27.512l-76.471,59.827l26.701,93.348c2.899,10.135 -0.847,21 -9.374,27.196c-8.528,6.196 -20.019,6.4 -28.762,0.512l-80.529,-54.241l-80.529,54.241c-8.742,5.888 -20.234,5.684 -28.761,-0.512c-8.528,-6.196 -12.274,-17.061 -9.375,-27.196l26.701,-93.348l-76.47,-59.827c-8.302,-6.495 -11.659,-17.487 -8.402,-27.512c3.258,-10.025 12.434,-16.944 22.968,-17.319l97.031,-3.452l33.268,-91.216Z" style="fill:#867b9f;"/></svg>