<?xml version="1.0" encoding="UTF-8" standalone="no"?>
<!DOCTYPE svg PUBLIC "-//W3C//DTD SVG 1.1//EN" "http://www.w3.org/Graphics/SVG/1.1/DTD/svg11.dtd">
<svg width="100%" height="100%" viewBox="0 0 3508 3419" version="1.1" xmlns="http://www.w3.org/2000/svg" xmlns:xlink="http://www.w3.org/1999/xlink" xml:space="preserve" xmlns:serif="http://www.serif.com/" style="fill-rule:evenodd;clip-rule:evenodd;stroke-linejoin:round;stroke-miterlimit:2;">
    <g transform="matrix(1,0,0,1,0,-4375.74)">
        <g id="Stars" transform="matrix(1,0,0,1.37819,0,4375.74)">
            <rect x="0" y="0" width="3507.87" height="2480.32" style="fill:none;"/>
            <g transform="matrix(0.701855,0,0,0.50926,-603.426,-2801.66)">
                <path d="M1945.15,5767.84C1966.53,5708.94 2022.49,5669.71 2085.15,5669.71C2147.82,5669.71 2203.78,5708.94 2225.16,5767.84L2421.71,6309.44C2421.77,6309.61 2421.89,6309.77 2422.03,6309.87C2422.18,6309.98 2422.36,6310.04 2422.54,6310.05L2998.37,6329.62C3061,6331.74 3115.6,6372.85 3134.96,6432.44C3154.33,6492.04 3134.32,6557.39 3084.9,6595.92L2630.55,6950.22C2630.4,6950.33 2630.29,6950.48 2630.24,6950.66C2630.18,6950.83 2630.18,6951.02 2630.23,6951.19L2789.56,7504.89C2806.89,7565.11 2784.67,7629.74 2733.97,7666.57C2683.28,7703.41 2614.95,7704.57 2563.03,7669.48L2085.66,7346.84C2085.51,7346.74 2085.34,7346.69 2085.15,7346.69C2084.97,7346.69 2084.79,7346.74 2084.64,7346.84L1607.28,7669.48C1555.36,7704.57 1487.03,7703.41 1436.33,7666.57C1385.64,7629.74 1363.42,7565.11 1380.75,7504.89L1540.08,6951.19C1540.13,6951.02 1540.12,6950.83 1540.07,6950.66C1540.01,6950.48 1539.9,6950.33 1539.76,6950.22L1085.4,6595.92C1035.99,6557.39 1015.98,6492.04 1035.34,6432.44C1054.7,6372.85 1109.3,6331.74 1171.93,6329.62L1747.76,6310.05C1747.95,6310.04 1748.12,6309.98 1748.27,6309.87C1748.42,6309.77 1748.53,6309.61 1748.59,6309.44L1945.15,5767.84Z" style="fill:rgb(205,242,84);"/>
            </g>
            <g transform="matrix(0.643877,0,0,0.467192,-482.533,-1290.31)">
                <path d="M1945.23,5767.62C1966.67,5708.83 2022.57,5669.71 2085.15,5669.71C2147.73,5669.71 2203.63,5708.83 2225.08,5767.62L2422.57,6309.13L2998.61,6329.62C3061.15,6331.85 3115.63,6372.93 3134.96,6432.44C3154.3,6491.96 3134.38,6557.22 3085.09,6595.77L2631.11,6950.94L2789.62,7505.12C2806.83,7565.28 2784.6,7629.79 2733.97,7666.57C2683.35,7703.36 2615.13,7704.57 2563.22,7669.61L2085.15,7347.6L1607.08,7669.61C1555.18,7704.57 1486.96,7703.36 1436.33,7666.57C1385.71,7629.79 1363.47,7565.28 1380.68,7505.12L1539.19,6950.94L1085.22,6595.77C1035.93,6557.22 1016,6491.96 1035.34,6432.44C1054.68,6372.93 1109.15,6331.85 1171.69,6329.62L1747.73,6309.13L1945.23,5767.62Z" style="fill:rgb(205,242,84);"/>
                <path d="M1945.23,5767.62C1966.67,5708.83 2022.57,5669.71 2085.15,5669.71C2147.73,5669.71 2203.63,5708.83 2225.08,5767.62L2422.57,6309.13L2998.61,6329.62C3061.15,6331.85 3115.63,6372.93 3134.96,6432.44C3154.3,6491.96 3134.38,6557.22 3085.09,6595.77L2631.11,6950.94L2789.62,7505.12C2806.83,7565.28 2784.6,7629.79 2733.97,7666.57C2683.35,7703.36 2615.13,7704.57 2563.22,7669.61L2085.15,7347.6L1607.08,7669.61C1555.18,7704.57 1486.96,7703.36 1436.33,7666.57C1385.71,7629.79 1363.47,7565.28 1380.68,7505.12L1539.19,6950.94L1085.22,6595.77C1035.93,6557.22 1016,6491.96 1035.34,6432.44C1054.68,6372.93 1109.15,6331.85 1171.69,6329.62L1747.73,6309.13L1945.23,5767.62ZM2006.02,5789.79L1808.53,6331.3C1799.5,6356.06 1776.36,6372.86 1750.03,6373.8L1173.99,6394.3C1138.63,6395.55 1107.82,6418.78 1096.88,6452.44C1085.95,6486.1 1097.22,6523 1125.09,6544.81L1579.07,6899.97C1599.82,6916.21 1608.66,6943.4 1601.41,6968.74L1442.9,7522.92C1433.16,7556.94 1445.74,7593.42 1474.37,7614.22C1503,7635.02 1541.58,7635.71 1570.93,7615.94L2049,7293.93C2070.85,7279.21 2099.45,7279.21 2121.3,7293.93L2599.38,7615.94C2628.73,7635.71 2667.3,7635.02 2695.93,7614.22C2724.57,7593.42 2737.14,7556.94 2727.41,7522.92L2568.89,6968.74C2561.65,6943.4 2570.48,6916.21 2591.24,6899.97L3045.21,6544.81C3073.09,6523 3084.36,6486.1 3073.42,6452.44C3062.48,6418.78 3031.68,6395.55 2996.31,6394.3L2420.27,6373.8C2393.94,6372.86 2370.8,6356.06 2361.78,6331.3L2164.28,5789.79C2152.16,5756.54 2120.54,5734.42 2085.15,5734.42C2049.76,5734.42 2018.15,5756.54 2006.02,5789.79Z"/>
            </g>
            <g transform="matrix(0.701855,0,0,0.50926,1184.35,-2801.66)">
                <path d="M1945.23,5767.62C1966.67,5708.83 2022.57,5669.71 2085.15,5669.71C2147.73,5669.71 2203.63,5708.83 2225.08,5767.62L2422.57,6309.13L2998.61,6329.62C3061.15,6331.85 3115.63,6372.93 3134.96,6432.44C3154.3,6491.96 3134.38,6557.22 3085.09,6595.77L2631.11,6950.94L2789.62,7505.12C2806.83,7565.28 2784.6,7629.79 2733.97,7666.57C2683.35,7703.36 2615.13,7704.57 2563.22,7669.61L2085.15,7347.6L1607.08,7669.61C1555.18,7704.57 1486.96,7703.36 1436.33,7666.57C1385.71,7629.79 1363.47,7565.28 1380.68,7505.12L1539.19,6950.94L1085.22,6595.77C1035.93,6557.22 1016,6491.96 1035.34,6432.44C1054.68,6372.93 1109.15,6331.85 1171.69,6329.62L1747.73,6309.13L1945.23,5767.62Z" style="fill:rgb(134,123,159);"/>
            </g>
        </g>
    </g>
</svg>
