<?xml version="1.0" encoding="UTF-8" standalone="no"?>
<!DOCTYPE svg PUBLIC "-//W3C//DTD SVG 1.1//EN" "http://www.w3.org/Graphics/SVG/1.1/DTD/svg11.dtd">
<svg width="100%" height="100%" viewBox="0 0 2835 2363" version="1.1" xmlns="http://www.w3.org/2000/svg" xmlns:xlink="http://www.w3.org/1999/xlink" xml:space="preserve" xmlns:serif="http://www.serif.com/" style="fill-rule:evenodd;clip-rule:evenodd;stroke-linejoin:round;stroke-miterlimit:2;">
    <g transform="matrix(1,0,0,1,-354.331,-8647.65)">
        <g transform="matrix(1,0,0,1.61053,0,8175.21)">
            <g transform="matrix(1,0,0,1.86274,354.331,-20068.5)">
                <path d="M354.331,11364.2L0,11364.2L0,11285.4L354.331,11285.4L354.331,11167.3L708.661,11167.3L708.661,11049.2L1062.99,11049.2L1062.99,10931.1L1771.65,10931.1L1771.65,11049.2L2125.98,11049.2L2125.98,11167.3L2480.32,11167.3L2480.32,11285.4L2834.65,11285.4L2834.65,11364.2L2480.32,11364.2L2480.32,11718.5L1771.65,11718.5L1771.65,11482.3L1062.99,11482.3L1062.99,11718.5L354.331,11718.5L354.331,11364.2Z"/>
            </g>
        </g>
    </g>
</svg>
