<?xml version="1.0" encoding="UTF-8" standalone="no"?>
<!DOCTYPE svg PUBLIC "-//W3C//DTD SVG 1.1//EN" "http://www.w3.org/Graphics/SVG/1.1/DTD/svg11.dtd">
<svg width="100%" height="100%" viewBox="0 0 3508 2481" version="1.1" xmlns="http://www.w3.org/2000/svg" xmlns:xlink="http://www.w3.org/1999/xlink" xml:space="preserve" xmlns:serif="http://www.serif.com/" style="fill-rule:evenodd;clip-rule:evenodd;stroke-linejoin:round;stroke-miterlimit:2;">
    <g transform="matrix(1,0,0,1,-2.27374e-13,-2480.31)">
        <g id="Button_Click" transform="matrix(1,0,0,1,2.27374e-13,2480.31)">
            <rect x="0" y="0" width="3507.87" height="2480.32" style="fill:none;"/>
            <g transform="matrix(1.12146,0,0,1.22581,-213.029,-243.84)">
                <path d="M3212.6,543.586L3212.6,1877.67C3212.6,2014.72 3090.98,2125.98 2941.18,2125.98L566.69,2125.98C416.892,2125.98 295.276,2014.72 295.276,1877.67L295.276,543.586C295.276,406.54 416.892,295.276 566.69,295.276L2941.18,295.276C3090.98,295.276 3212.6,406.54 3212.6,543.586Z" style="fill:rgb(71,71,71);"/>
                <path d="M3212.6,543.586L3212.6,1877.67C3212.6,2014.72 3090.98,2125.98 2941.18,2125.98L566.69,2125.98C416.892,2125.98 295.276,2014.72 295.276,1877.67L295.276,543.586C295.276,406.54 416.892,295.276 566.69,295.276L2941.18,295.276C3090.98,295.276 3212.6,406.54 3212.6,543.586ZM3101.14,543.586C3101.14,462.82 3029.46,397.249 2941.18,397.249L566.69,397.249C478.41,397.249 406.738,462.82 406.738,543.586L406.738,1877.67C406.738,1958.44 478.41,2024.01 566.69,2024.01L2941.18,2024.01C3029.46,2024.01 3101.14,1958.44 3101.14,1877.67L3101.14,543.586Z"/>
            </g>
        </g>
    </g>
</svg>
