<?xml version="1.0" encoding="UTF-8" standalone="no"?>
<!DOCTYPE svg PUBLIC "-//W3C//DTD SVG 1.1//EN" "http://www.w3.org/Graphics/SVG/1.1/DTD/svg11.dtd">
<svg width="100%" height="100%" viewBox="0 0 6367 6403" version="1.1" xmlns="http://www.w3.org/2000/svg" xmlns:xlink="http://www.w3.org/1999/xlink" xml:space="preserve" xmlns:serif="http://www.serif.com/" style="fill-rule:evenodd;clip-rule:evenodd;stroke-linejoin:round;stroke-miterlimit:2;">
    <g transform="matrix(1,0,0,1,-3786.92,-4375.74)">
        <g id="Button_Age" transform="matrix(1.81505,0,0,2.58137,3786.92,4375.74)">
            <rect x="0" y="0" width="3507.87" height="2480.32" style="fill:none;"/>
            <g transform="matrix(0.557641,0,0,0.624825,-99.585,-138.741)">
                <path d="M3212.6,543.586L3212.6,1877.67C3212.6,2014.72 3035.29,2125.98 2816.91,2125.98L690.969,2125.98C472.58,2125.98 295.276,2014.72 295.276,1877.67L295.276,543.586C295.276,406.54 472.58,295.276 690.969,295.276L2816.91,295.276C3035.29,295.276 3212.6,406.54 3212.6,543.586Z" style="fill:white;"/>
                <path d="M3212.6,543.586L3212.6,1877.67C3212.6,2014.72 3035.29,2125.98 2816.91,2125.98L690.969,2125.98C472.58,2125.98 295.276,2014.72 295.276,1877.67L295.276,543.586C295.276,406.54 472.58,295.276 690.969,295.276L2816.91,295.276C3035.29,295.276 3212.6,406.54 3212.6,543.586ZM3150.85,543.586C3150.85,427.926 3001.21,334.026 2816.91,334.026L690.969,334.026C506.661,334.026 357.026,427.926 357.026,543.586L357.026,1877.67C357.026,1993.33 506.661,2087.23 690.969,2087.23L2816.91,2087.23C3001.21,2087.23 3150.85,1993.33 3150.85,1877.67L3150.85,543.586Z"/>
            </g>
            <g transform="matrix(0.557641,0,0,0.624825,-99.585,1060.8)">
                <path d="M3212.6,543.586L3212.6,1877.67C3212.6,2014.72 3035.29,2125.98 2816.91,2125.98L690.969,2125.98C472.58,2125.98 295.276,2014.72 295.276,1877.67L295.276,543.586C295.276,406.54 472.58,295.276 690.969,295.276L2816.91,295.276C3035.29,295.276 3212.6,406.54 3212.6,543.586Z" style="fill:rgb(205,242,84);"/>
                <path d="M3212.6,543.586L3212.6,1877.67C3212.6,2014.72 3035.29,2125.98 2816.91,2125.98L690.969,2125.98C472.58,2125.98 295.276,2014.72 295.276,1877.67L295.276,543.586C295.276,406.54 472.58,295.276 690.969,295.276L2816.91,295.276C3035.29,295.276 3212.6,406.54 3212.6,543.586ZM3089.1,543.586C3089.1,449.313 2967.13,372.776 2816.91,372.776L690.969,372.776C540.742,372.776 418.776,449.313 418.776,543.586L418.776,1877.67C418.776,1971.95 540.742,2048.48 690.969,2048.48L2816.91,2048.48C2967.13,2048.48 3089.1,1971.95 3089.1,1877.67L3089.1,543.586Z"/>
            </g>
            <g transform="matrix(0.550949,0,0,0.623904,29.8462,480.426)">
                <g transform="matrix(0.606281,0,0,0.376448,73.1829,179.979)">
                    <rect x="440.618" y="579.138" width="125.857" height="125.857" style="fill:white;"/>
                </g>
                <g transform="matrix(0.606281,0,0,0.376448,224.089,273.679)">
                    <rect x="440.618" y="579.138" width="125.857" height="125.857" style="fill:white;"/>
                </g>
                <g transform="matrix(0.606281,0,0,0.376448,360.895,358.624)">
                    <rect x="440.618" y="579.138" width="125.857" height="125.857" style="fill:white;"/>
                </g>
                <g transform="matrix(0.606281,0,0,0.376448,224.089,86.2794)">
                    <rect x="440.618" y="579.138" width="125.857" height="125.857" style="fill:white;"/>
                </g>
                <g transform="matrix(0.606281,0,0,0.376448,360.895,1.33498)">
                    <rect x="440.618" y="579.138" width="125.857" height="125.857" style="fill:white;"/>
                </g>
            </g>
            <g transform="matrix(0.557641,0,0,0.624825,1588.29,-138.741)">
                <path d="M3212.6,543.586L3212.6,1877.67C3212.6,2014.72 3035.29,2125.98 2816.91,2125.98L690.969,2125.98C472.58,2125.98 295.276,2014.72 295.276,1877.67L295.276,543.586C295.276,406.54 472.58,295.276 690.969,295.276L2816.91,295.276C3035.29,295.276 3212.6,406.54 3212.6,543.586Z" style="fill:rgb(205,242,84);"/>
                <path d="M3212.6,543.586L3212.6,1877.67C3212.6,2014.72 3035.29,2125.98 2816.91,2125.98L690.969,2125.98C472.58,2125.98 295.276,2014.72 295.276,1877.67L295.276,543.586C295.276,406.54 472.58,295.276 690.969,295.276L2816.91,295.276C3035.29,295.276 3212.6,406.54 3212.6,543.586ZM3130.26,543.586C3130.26,435.055 2989.85,346.942 2816.91,346.942L690.969,346.942C518.021,346.942 377.609,435.055 377.609,543.586L377.609,1877.67C377.609,1986.21 518.021,2074.32 690.969,2074.32L2816.91,2074.32C2989.85,2074.32 3130.26,1986.21 3130.26,1877.67L3130.26,543.586Z"/>
            </g>
        </g>
    </g>
</svg>
