<?xml version="1.0" encoding="UTF-8" standalone="no"?>
<!DOCTYPE svg PUBLIC "-//W3C//DTD SVG 1.1//EN" "http://www.w3.org/Graphics/SVG/1.1/DTD/svg11.dtd">
<svg width="100%" height="100%" viewBox="0 0 3508 3995" version="1.1" xmlns="http://www.w3.org/2000/svg" xmlns:xlink="http://www.w3.org/1999/xlink" xml:space="preserve" xmlns:serif="http://www.serif.com/" style="fill-rule:evenodd;clip-rule:evenodd;stroke-linejoin:round;stroke-miterlimit:2;">
    <g transform="matrix(1,0,0,1,-3786.92,0)">
        <g id="Button_Back" transform="matrix(1,0,0,1.61053,3786.92,0)">
            <rect x="0" y="0" width="3507.87" height="2480.32" style="fill:none;"/>
            <g transform="matrix(1.12146,0,0,0.380561,-213.029,-39.0339)">
                <path d="M3212.6,543.586L3212.6,1877.67C3212.6,2014.72 3151.79,2125.98 3076.89,2125.98L430.983,2125.98C356.084,2125.98 295.276,2014.72 295.276,1877.67L295.276,543.586C295.276,406.54 356.084,295.276 430.983,295.276L3076.89,295.276C3151.79,295.276 3212.6,406.54 3212.6,543.586Z" style="fill:white;"/>
                <path d="M3212.6,543.586L3212.6,1877.67C3212.6,2014.72 3151.79,2125.98 3076.89,2125.98L430.983,2125.98C356.084,2125.98 295.276,2014.72 295.276,1877.67L295.276,543.586C295.276,406.54 356.084,295.276 430.983,295.276L3076.89,295.276C3151.79,295.276 3212.6,406.54 3212.6,543.586ZM3156.87,543.586C3156.87,462.82 3121.03,397.249 3076.89,397.249L430.983,397.249C386.843,397.249 351.007,462.82 351.007,543.586L351.007,1877.67C351.007,1958.44 386.843,2024.01 430.983,2024.01L3076.89,2024.01C3121.03,2024.01 3156.87,1958.44 3156.87,1877.67L3156.87,543.586Z"/>
            </g>
            <g transform="matrix(1.12146,0,0,0.380561,-213.029,1501.03)">
                <path d="M3212.6,543.586L3212.6,1877.67C3212.6,2014.72 3151.79,2125.98 3076.89,2125.98L430.983,2125.98C356.084,2125.98 295.276,2014.72 295.276,1877.67L295.276,543.586C295.276,406.54 356.084,295.276 430.983,295.276L3076.89,295.276C3151.79,295.276 3212.6,406.54 3212.6,543.586Z" style="fill:rgb(244,135,30);"/>
                <path d="M3212.6,543.586L3212.6,1877.67C3212.6,2014.72 3151.79,2125.98 3076.89,2125.98L430.983,2125.98C356.084,2125.98 295.276,2014.72 295.276,1877.67L295.276,543.586C295.276,406.54 356.084,295.276 430.983,295.276L3076.89,295.276C3151.79,295.276 3212.6,406.54 3212.6,543.586ZM3101.14,543.586C3101.14,519.101 3090.27,499.223 3076.89,499.223L430.983,499.223C417.602,499.223 406.738,519.101 406.738,543.586L406.738,1877.67C406.738,1902.16 417.602,1922.04 430.983,1922.04L3076.89,1922.04C3090.27,1922.04 3101.14,1902.16 3101.14,1877.67L3101.14,543.586Z"/>
            </g>
            <g transform="matrix(1,0,0,1,54.1723,2.82263e-12)">
                <g transform="matrix(0.606281,0,0,0.376448,73.1829,179.979)">
                    <rect x="440.618" y="579.138" width="125.857" height="125.857"/>
                </g>
                <g transform="matrix(0.606281,0,0,0.376448,224.089,273.679)">
                    <rect x="440.618" y="579.138" width="125.857" height="125.857"/>
                </g>
                <g transform="matrix(0.606281,0,0,0.376448,360.895,358.624)">
                    <rect x="440.618" y="579.138" width="125.857" height="125.857"/>
                </g>
                <g transform="matrix(0.606281,0,0,0.376448,224.089,86.2794)">
                    <rect x="440.618" y="579.138" width="125.857" height="125.857"/>
                </g>
                <g transform="matrix(0.606281,0,0,0.376448,360.895,1.33498)">
                    <rect x="440.618" y="579.138" width="125.857" height="125.857"/>
                </g>
            </g>
            <g transform="matrix(1,0,0,1,54.1723,770.032)">
                <g transform="matrix(0.606281,0,0,0.376448,73.1829,179.979)">
                    <rect x="440.618" y="579.138" width="125.857" height="125.857" style="fill:white;"/>
                </g>
                <g transform="matrix(0.606281,0,0,0.376448,224.089,273.679)">
                    <rect x="440.618" y="579.138" width="125.857" height="125.857" style="fill:white;"/>
                </g>
                <g transform="matrix(0.606281,0,0,0.376448,360.895,358.624)">
                    <rect x="440.618" y="579.138" width="125.857" height="125.857" style="fill:white;"/>
                </g>
                <g transform="matrix(0.606281,0,0,0.376448,224.089,86.2794)">
                    <rect x="440.618" y="579.138" width="125.857" height="125.857" style="fill:white;"/>
                </g>
                <g transform="matrix(0.606281,0,0,0.376448,360.895,1.33498)">
                    <rect x="440.618" y="579.138" width="125.857" height="125.857" style="fill:white;"/>
                </g>
            </g>
            <g transform="matrix(1,0,0,1,54.1723,1540.06)">
                <g transform="matrix(0.606281,0,0,0.376448,73.1829,179.979)">
                    <rect x="440.618" y="579.138" width="125.857" height="125.857"/>
                </g>
                <g transform="matrix(0.606281,0,0,0.376448,224.089,273.679)">
                    <rect x="440.618" y="579.138" width="125.857" height="125.857"/>
                </g>
                <g transform="matrix(0.606281,0,0,0.376448,360.895,358.624)">
                    <rect x="440.618" y="579.138" width="125.857" height="125.857"/>
                </g>
                <g transform="matrix(0.606281,0,0,0.376448,224.089,86.2794)">
                    <rect x="440.618" y="579.138" width="125.857" height="125.857"/>
                </g>
                <g transform="matrix(0.606281,0,0,0.376448,360.895,1.33498)">
                    <rect x="440.618" y="579.138" width="125.857" height="125.857"/>
                </g>
            </g>
            <g transform="matrix(1.04743,0,0,0.35544,-83.1912,761.41)">
                <path d="M3212.6,543.586L3212.6,1877.67C3212.6,2014.72 3151.79,2125.98 3076.89,2125.98L430.983,2125.98C356.084,2125.98 295.276,2014.72 295.276,1877.67L295.276,543.586C295.276,406.54 356.084,295.276 430.983,295.276L3076.89,295.276C3151.79,295.276 3212.6,406.54 3212.6,543.586Z" style="fill:rgb(244,135,30);"/>
                <clipPath id="_clip1">
                    <path d="M3212.6,543.586L3212.6,1877.67C3212.6,2014.72 3151.79,2125.98 3076.89,2125.98L430.983,2125.98C356.084,2125.98 295.276,2014.72 295.276,1877.67L295.276,543.586C295.276,406.54 356.084,295.276 430.983,295.276L3076.89,295.276C3151.79,295.276 3212.6,406.54 3212.6,543.586Z"/>
                </clipPath>
                <g clip-path="url(#_clip1)">
                    <g transform="matrix(0.891697,0,0,2.6277,238.262,102.569)">
                        <g transform="matrix(0.606281,0,0,0.376448,73.1829,179.979)">
                            <rect x="440.618" y="579.138" width="125.857" height="125.857" style="fill:white;"/>
                        </g>
                        <g transform="matrix(0.606281,0,0,0.376448,224.089,273.679)">
                            <rect x="440.618" y="579.138" width="125.857" height="125.857" style="fill:white;"/>
                        </g>
                        <g transform="matrix(0.606281,0,0,0.376448,360.895,358.624)">
                            <rect x="440.618" y="579.138" width="125.857" height="125.857" style="fill:white;"/>
                        </g>
                        <g transform="matrix(0.606281,0,0,0.376448,224.089,86.2794)">
                            <rect x="440.618" y="579.138" width="125.857" height="125.857" style="fill:white;"/>
                        </g>
                        <g transform="matrix(0.606281,0,0,0.376448,360.895,1.33498)">
                            <rect x="440.618" y="579.138" width="125.857" height="125.857" style="fill:white;"/>
                        </g>
                    </g>
                </g>
                <path d="M3212.6,543.586L3212.6,1877.67C3212.6,2014.72 3151.79,2125.98 3076.89,2125.98L430.983,2125.98C356.084,2125.98 295.276,2014.72 295.276,1877.67L295.276,543.586C295.276,406.54 356.084,295.276 430.983,295.276L3076.89,295.276C3151.79,295.276 3212.6,406.54 3212.6,543.586ZM3133.04,543.586C3133.04,486.884 3107.88,440.85 3076.89,440.85L430.983,440.85C399.994,440.85 374.835,486.884 374.835,543.586L374.835,1877.67C374.835,1934.38 399.994,1980.41 430.983,1980.41L3076.89,1980.41C3107.88,1980.41 3133.04,1934.38 3133.04,1877.67L3133.04,543.586Z"/>
            </g>
        </g>
    </g>
</svg>
