<?xml version="1.0" encoding="UTF-8" standalone="no"?>
<!DOCTYPE svg PUBLIC "-//W3C//DTD SVG 1.1//EN" "http://www.w3.org/Graphics/SVG/1.1/DTD/svg11.dtd">
<svg width="100%" height="100%" viewBox="0 0 1497 3995" version="1.1" xmlns="http://www.w3.org/2000/svg" xmlns:xlink="http://www.w3.org/1999/xlink" xml:space="preserve" xmlns:serif="http://www.serif.com/" style="fill-rule:evenodd;clip-rule:evenodd;stroke-linecap:round;stroke-linejoin:round;stroke-miterlimit:1.5;">
    <g transform="matrix(1,0,0,1,-15147.7,-2.27374e-13)">
        <g id="Button_Close" transform="matrix(0.426632,0,0,1.61053,15147.7,2.27374e-13)">
            <rect x="0" y="0" width="3507.87" height="2480.32" style="fill:none;"/>
            <g transform="matrix(1,0,0,1,162.088,5.29424e-14)">
                <g transform="matrix(0.901515,0,0,0.380561,10.6478,-39.0339)">
                    <path d="M3212.6,543.586L3212.6,1877.67C3212.6,2014.72 3035.29,2125.98 2816.91,2125.98L690.969,2125.98C472.58,2125.98 295.276,2014.72 295.276,1877.67L295.276,543.586C295.276,406.54 472.58,295.276 690.969,295.276L2816.91,295.276C3035.29,295.276 3212.6,406.54 3212.6,543.586Z" style="fill:white;"/>
                    <path d="M3212.6,543.586L3212.6,1877.67C3212.6,2014.72 3035.29,2125.98 2816.91,2125.98L690.969,2125.98C472.58,2125.98 295.276,2014.72 295.276,1877.67L295.276,543.586C295.276,406.54 472.58,295.276 690.969,295.276L2816.91,295.276C3035.29,295.276 3212.6,406.54 3212.6,543.586ZM3050.1,543.585C3050.1,462.82 2945.61,397.249 2816.91,397.249L690.969,397.249C562.266,397.249 457.776,462.82 457.776,543.586L457.776,1877.67C457.776,1958.44 562.266,2024.01 690.969,2024.01L2816.91,2024.01C2945.61,2024.01 3050.1,1958.44 3050.1,1877.67L3050.1,543.585Z"/>
                </g>
                <g transform="matrix(2.34394,0,0,0.620915,-35667.4,-1.94122e-13)">
                    <path d="M15549.5,332.624L16242.5,1025.64" style="fill:none;stroke:black;stroke-width:83.33px;"/>
                </g>
                <g transform="matrix(-2.34394,0,0,0.620915,38851,-1.94122e-13)">
                    <path d="M15549.5,332.624L16242.5,1025.64" style="fill:none;stroke:black;stroke-width:83.33px;"/>
                </g>
            </g>
            <g transform="matrix(1,0,0,1,231.299,-1.4118e-13)">
                <g transform="matrix(0.854067,0,0,0.360531,24.6581,755.246)">
                    <path d="M3212.6,543.586L3212.6,1877.67C3212.6,2014.72 3035.29,2125.98 2816.91,2125.98L690.969,2125.98C472.58,2125.98 295.276,2014.72 295.276,1877.67L295.276,543.586C295.276,406.54 472.58,295.276 690.969,295.276L2816.91,295.276C3035.29,295.276 3212.6,406.54 3212.6,543.586Z" style="fill:rgb(218,36,39);"/>
                    <path d="M3212.6,543.586L3212.6,1877.67C3212.6,2014.72 3035.29,2125.98 2816.91,2125.98L690.969,2125.98C472.58,2125.98 295.276,2014.72 295.276,1877.67L295.276,543.586C295.276,406.54 472.58,295.276 690.969,295.276L2816.91,295.276C3035.29,295.276 3212.6,406.54 3212.6,543.586ZM2983.89,543.585C2983.89,485.75 2909.07,438.794 2816.91,438.794L690.969,438.794C598.805,438.794 523.979,485.75 523.979,543.586L523.979,1877.67C523.979,1935.51 598.805,1982.47 690.969,1982.47L2816.91,1982.47C2909.07,1982.47 2983.89,1935.51 2983.89,1877.67L2983.89,543.585Z"/>
                </g>
                <g transform="matrix(1,0,0,1,-69.2108,-2.21938)">
                    <g transform="matrix(2.34394,0,0,0.620915,-35667.4,772.251)">
                        <path d="M15549.5,332.624L16242.5,1025.64" style="fill:none;stroke:black;stroke-width:83.33px;"/>
                    </g>
                    <g transform="matrix(-2.34394,0,0,0.620915,38851,772.251)">
                        <path d="M15549.5,332.624L16242.5,1025.64" style="fill:none;stroke:black;stroke-width:83.33px;"/>
                    </g>
                </g>
            </g>
            <g transform="matrix(1,0,0,1,162.088,-4.23539e-13)">
                <g transform="matrix(0.901515,0,0,0.380561,10.6478,1501.03)">
                    <path d="M3212.6,543.586L3212.6,1877.67C3212.6,2014.72 3035.29,2125.98 2816.91,2125.98L690.969,2125.98C472.58,2125.98 295.276,2014.72 295.276,1877.67L295.276,543.586C295.276,406.54 472.58,295.276 690.969,295.276L2816.91,295.276C3035.29,295.276 3212.6,406.54 3212.6,543.586Z" style="fill:rgb(218,36,39);"/>
                    <path d="M3212.6,543.586L3212.6,1877.67C3212.6,2014.72 3035.29,2125.98 2816.91,2125.98L690.969,2125.98C472.58,2125.98 295.276,2014.72 295.276,1877.67L295.276,543.586C295.276,406.54 472.58,295.276 690.969,295.276L2816.91,295.276C3035.29,295.276 3212.6,406.54 3212.6,543.586ZM2887.6,543.585C2887.6,519.101 2855.92,499.223 2816.91,499.223L690.969,499.223C651.952,499.223 620.276,519.101 620.276,543.586L620.276,1877.67C620.276,1902.16 651.952,1922.04 690.969,1922.04L2816.91,1922.04C2855.92,1922.04 2887.6,1902.16 2887.6,1877.67L2887.6,543.585Z"/>
                </g>
                <g transform="matrix(1,0,0,1,-7.27596e-12,767.813)">
                    <g transform="matrix(2.34394,0,0,0.620915,-35667.4,772.251)">
                        <path d="M15549.5,332.624L16242.5,1025.64" style="fill:none;stroke:black;stroke-width:83.33px;"/>
                    </g>
                    <g transform="matrix(-2.34394,0,0,0.620915,38851,772.251)">
                        <path d="M15549.5,332.624L16242.5,1025.64" style="fill:none;stroke:black;stroke-width:83.33px;"/>
                    </g>
                </g>
            </g>
        </g>
    </g>
</svg>
