<?xml version="1.0" encoding="UTF-8" standalone="no"?>
<!DOCTYPE svg PUBLIC "-//W3C//DTD SVG 1.1//EN" "http://www.w3.org/Graphics/SVG/1.1/DTD/svg11.dtd">
<svg width="100%" height="100%" viewBox="0 0 4514 4632" version="1.1" xmlns="http://www.w3.org/2000/svg" xmlns:xlink="http://www.w3.org/1999/xlink" xml:space="preserve" xmlns:serif="http://www.serif.com/" style="fill-rule:evenodd;clip-rule:evenodd;stroke-linejoin:round;stroke-miterlimit:2;">
    <g transform="matrix(1,0,0,1,-10355.1,-4375.74)">
        <g id="Option_Panel" transform="matrix(0.708897,0,0,0.906613,7670.58,-8258.52)">
            <rect x="3786.92" y="13935.7" width="6366.97" height="5108.84" style="fill:none;"/>
            <g transform="matrix(1.48223,0,0,1.77904,3680.74,13540.7)">
                <path d="M3212.6,543.586L3212.6,1877.67C3212.6,2014.72 3041.81,2125.98 2831.44,2125.98L676.432,2125.98C466.066,2125.98 295.276,2014.72 295.276,1877.67L295.276,543.586C295.276,406.54 466.066,295.276 676.432,295.276L2831.44,295.276C3041.81,295.276 3212.6,406.54 3212.6,543.586Z" style="fill:white;"/>
                <path d="M3212.6,543.586L3212.6,1877.67C3212.6,2014.72 3041.81,2125.98 2831.44,2125.98L676.432,2125.98C466.066,2125.98 295.276,2014.72 295.276,1877.67L295.276,543.586C295.276,406.54 466.066,295.276 676.432,295.276L2831.44,295.276C3041.81,295.276 3212.6,406.54 3212.6,543.586ZM3153.12,543.586C3153.12,427.926 3008.98,334.026 2831.44,334.026L676.432,334.026C498.895,334.026 354.757,427.926 354.757,543.586L354.757,1877.67C354.757,1993.33 498.895,2087.23 676.432,2087.23L2831.44,2087.23C3008.98,2087.23 3153.12,1993.33 3153.12,1877.67L3153.12,543.586Z"/>
            </g>
            <g transform="matrix(1.58197,0,0,0.676036,3651.29,17374.4)">
                <path d="M3212.6,543.586L3212.6,1877.67C3212.6,2014.72 3151.79,2125.98 3076.89,2125.98L430.983,2125.98C356.084,2125.98 295.276,2014.72 295.276,1877.67L295.276,543.586C295.276,406.54 356.084,295.276 430.983,295.276L3076.89,295.276C3151.79,295.276 3212.6,406.54 3212.6,543.586Z" style="fill:white;"/>
                <path d="M3212.6,543.586L3212.6,1877.67C3212.6,2014.72 3151.79,2125.98 3076.89,2125.98L430.983,2125.98C356.084,2125.98 295.276,2014.72 295.276,1877.67L295.276,543.586C295.276,406.54 356.084,295.276 430.983,295.276L3076.89,295.276C3151.79,295.276 3212.6,406.54 3212.6,543.586ZM3156.87,543.586C3156.87,462.82 3121.03,397.249 3076.89,397.249L430.983,397.249C386.843,397.249 351.007,462.82 351.007,543.586L351.007,1877.67C351.007,1958.44 386.843,2024.01 430.983,2024.01L3076.89,2024.01C3121.03,2024.01 3156.87,1958.44 3156.87,1877.67L3156.87,543.586Z"/>
            </g>
            <g transform="matrix(9.65099e-17,-1.19936,2.47034,1.23124e-16,8191.67,15458.2)">
                <g transform="matrix(0.606281,0,0,0.376448,73.1829,179.979)">
                    <rect x="440.618" y="579.138" width="125.857" height="125.857"/>
                </g>
                <g transform="matrix(0.606281,0,0,0.376448,224.089,273.679)">
                    <rect x="440.618" y="579.138" width="125.857" height="125.857"/>
                </g>
                <g transform="matrix(0.606281,0,0,0.376448,360.895,358.624)">
                    <rect x="440.618" y="579.138" width="125.857" height="125.857"/>
                </g>
                <g transform="matrix(0.606281,0,0,0.376448,224.089,86.2794)">
                    <rect x="440.618" y="579.138" width="125.857" height="125.857"/>
                </g>
                <g transform="matrix(0.606281,0,0,0.376448,360.895,1.33498)">
                    <rect x="440.618" y="579.138" width="125.857" height="125.857"/>
                </g>
            </g>
        </g>
    </g>
</svg>
