<?xml version="1.0" encoding="UTF-8" standalone="no"?><!DOCTYPE svg PUBLIC "-//W3C//DTD SVG 1.1//EN" "http://www.w3.org/Graphics/SVG/1.1/DTD/svg11.dtd"><svg width="100%" height="100%" viewBox="0 0 3508 3995" version="1.1" xmlns="http://www.w3.org/2000/svg" xmlns:xlink="http://www.w3.org/1999/xlink" xml:space="preserve" xmlns:serif="http://www.serif.com/" style="fill-rule:evenodd;clip-rule:evenodd;stroke-linejoin:round;stroke-miterlimit:2;"><rect id="Button_Forward" x="0" y="0" width="3507.87" height="3994.62" style="fill:none;"/><path d="M3389.76,270.3l-0,817.668c-0,83.995 -68.194,152.189 -152.19,152.189l-2967.27,0c-83.996,0 -152.19,-68.194 -152.19,-152.189l0,-817.668c0,-83.996 68.194,-152.19 152.19,-152.19l2967.27,0c83.996,0 152.19,68.194 152.19,152.19Z" style="fill:#fff;"/><clipPath id="_clip1"><path d="M3389.76,270.3l-0,817.668c-0,83.995 -68.194,152.189 -152.19,152.189l-2967.27,0c-83.996,0 -152.19,-68.194 -152.19,-152.189l0,-817.668c0,-83.996 68.194,-152.19 152.19,-152.19l2967.27,0c83.996,0 152.19,68.194 152.19,152.19Z"/></clipPath><g clip-path="url(#_clip1)"><g><rect x="3044.08" y="640.982" width="76.305" height="76.305"/><rect x="2893.18" y="490.075" width="76.305" height="76.305"/><rect x="2756.37" y="353.27" width="76.305" height="76.305"/><rect x="2893.18" y="791.888" width="76.305" height="76.305"/><rect x="2756.37" y="928.693" width="76.305" height="76.305"/></g></g><path d="M3389.76,270.3l-0,817.668c-0,83.995 -68.194,152.189 -152.19,152.189l-2967.27,0c-83.996,0 -152.19,-68.194 -152.19,-152.189l0,-817.668c0,-83.996 68.194,-152.19 152.19,-152.19l2967.27,0c83.996,0 152.19,68.194 152.19,152.19Zm-62.5,0c-0,-49.501 -40.189,-89.69 -89.69,-89.69l-2967.27,0c-49.501,0 -89.69,40.189 -89.69,89.69l0,817.668c0,49.501 40.189,89.689 89.69,89.689l2967.27,0c49.501,0 89.69,-40.188 89.69,-89.689l-0,-817.668Z"/><path d="M226.09,2301.14l-0,-763.694c-0,-78.451 63.692,-142.144 142.144,-142.144l2771.41,0c78.452,0 142.144,63.693 142.144,142.144l0,763.694c0,78.452 -63.692,142.144 -142.144,142.144l-2771.41,0c-78.452,0 -142.144,-63.692 -142.144,-142.144Z" style="fill:#bc0f2f;"/><clipPath id="_clip2"><path d="M226.09,2301.14l-0,-763.694c-0,-78.451 63.692,-142.144 142.144,-142.144l2771.41,0c78.452,0 142.144,63.693 142.144,142.144l0,763.694c0,78.452 -63.692,142.144 -142.144,142.144l-2771.41,0c-78.452,0 -142.144,-63.692 -142.144,-142.144Z"/></clipPath><g clip-path="url(#_clip2)"><g><rect x="2952.38" y="1883.66" width="71.268" height="71.268" style="fill:#fff;"/><rect x="2811.43" y="1742.71" width="71.268" height="71.268" style="fill:#fff;"/><rect x="2683.66" y="1614.94" width="71.268" height="71.268" style="fill:#fff;"/><rect x="2811.43" y="2024.6" width="71.268" height="71.268" style="fill:#fff;"/><rect x="2683.66" y="2152.38" width="71.268" height="71.268" style="fill:#fff;"/></g></g><path d="M226.09,2301.14l-0,-763.694c-0,-78.451 63.692,-142.144 142.144,-142.144l2771.41,0c78.452,0 142.144,63.693 142.144,142.144l0,763.694c0,78.452 -63.692,142.144 -142.144,142.144l-2771.41,0c-78.452,0 -142.144,-63.692 -142.144,-142.144Zm83.333,0c-0,32.459 26.352,58.811 58.811,58.811l2771.41,-0c32.459,-0 58.811,-26.352 58.811,-58.811l0,-763.694c0,-32.458 -26.352,-58.81 -58.811,-58.81l-2771.41,-0c-32.459,-0 -58.811,26.352 -58.811,58.81l-0,763.694Z"/><path d="M118.11,3568.28l0,-817.667c0,-83.996 68.194,-152.19 152.19,-152.19l2967.27,0c83.996,0 152.19,68.194 152.19,152.19l-0,817.667c-0,83.996 -68.194,152.19 -152.19,152.19l-2967.27,0c-83.996,0 -152.19,-68.194 -152.19,-152.19Z" style="fill:#bc0f2f;"/><clipPath id="_clip3"><path d="M118.11,3568.28l0,-817.667c0,-83.996 68.194,-152.19 152.19,-152.19l2967.27,0c83.996,0 152.19,68.194 152.19,152.19l-0,817.667c-0,83.996 -68.194,152.19 -152.19,152.19l-2967.27,0c-83.996,0 -152.19,-68.194 -152.19,-152.19Z"/></clipPath><g clip-path="url(#_clip3)"><g><rect x="3037.08" y="3121.3" width="76.305" height="76.305"/><rect x="2886.17" y="2970.39" width="76.305" height="76.305"/><rect x="2749.37" y="2833.59" width="76.305" height="76.305"/><rect x="2886.17" y="3272.2" width="76.305" height="76.305"/><rect x="2749.37" y="3409.01" width="76.305" height="76.305"/></g></g><path d="M118.11,3568.28l0,-817.667c0,-83.996 68.194,-152.19 152.19,-152.19l2967.27,0c83.996,0 152.19,68.194 152.19,152.19l-0,817.667c-0,83.996 -68.194,152.19 -152.19,152.19l-2967.27,0c-83.996,0 -152.19,-68.194 -152.19,-152.19Zm125,0c0,15.007 12.184,27.19 27.19,27.19l2967.27,0c15.006,0 27.19,-12.183 27.19,-27.19l-0,-817.667c-0,-15.006 -12.184,-27.19 -27.19,-27.19l-2967.27,0c-15.006,0 -27.19,12.184 -27.19,27.19l0,817.667Z"/></svg>