<?xml version="1.0" encoding="UTF-8" standalone="no"?><!DOCTYPE svg PUBLIC "-//W3C//DTD SVG 1.1//EN" "http://www.w3.org/Graphics/SVG/1.1/DTD/svg11.dtd"><svg width="100%" height="100%" viewBox="0 0 842 959" version="1.1" xmlns="http://www.w3.org/2000/svg" xmlns:xlink="http://www.w3.org/1999/xlink" xml:space="preserve" xmlns:serif="http://www.serif.com/" style="fill-rule:evenodd;clip-rule:evenodd;stroke-linejoin:round;stroke-miterlimit:2;"><rect id="Button_Home" x="0" y="0" width="841.89" height="958.708" style="fill:none;"/><path d="M813.543,64.872l0,196.24c0,20.159 -16.366,36.526 -36.525,36.526l-712.146,-0c-20.159,-0 -36.526,-16.367 -36.526,-36.526l0,-196.24c0,-20.159 16.367,-36.526 36.526,-36.526l712.146,0c20.159,0 36.525,16.367 36.525,36.526Z" style="fill:#fff;"/><path d="M813.543,64.872l0,196.24c0,20.159 -16.366,36.526 -36.525,36.526l-712.146,-0c-20.159,-0 -36.526,-16.367 -36.526,-36.526l0,-196.24c0,-20.159 16.367,-36.526 36.526,-36.526l712.146,0c20.159,0 36.525,16.367 36.525,36.526Zm-15,0c0,-11.88 -9.645,-21.526 -21.525,-21.526l-712.146,0c-11.88,0 -21.526,9.646 -21.526,21.526l0,196.24c0,11.881 9.646,21.526 21.526,21.526l712.146,-0c11.88,-0 21.525,-9.645 21.525,-21.526l0,-196.24Z"/><path d="M813.543,660.148l0,196.24c0,20.159 -16.366,36.525 -36.525,36.525l-712.146,0c-20.159,0 -36.526,-16.366 -36.526,-36.525l0,-196.24c0,-20.159 16.367,-36.526 36.526,-36.526l712.146,0c20.159,0 36.525,16.367 36.525,36.526Z" style="fill:#1855a5;"/><path d="M813.543,660.148l0,196.24c0,20.159 -16.366,36.525 -36.525,36.525l-712.146,0c-20.159,0 -36.526,-16.366 -36.526,-36.525l0,-196.24c0,-20.159 16.367,-36.526 36.526,-36.526l712.146,0c20.159,0 36.525,16.367 36.525,36.526Zm-30,-0c0,-3.602 -2.924,-6.526 -6.525,-6.526l-712.146,0c-3.602,0 -6.526,2.924 -6.526,6.526l0,196.24c0,3.601 2.924,6.525 6.526,6.525l712.146,0c3.601,0 6.525,-2.924 6.525,-6.525l0,-196.24Z"/><path d="M123.309,207.627l-21.532,-0l0,-50.049l-16.128,0l49.607,-39.22l49.606,39.22l-16.128,0l0,50.049l-21.532,-0l-0,-30.375l-23.893,-0l0,30.375Z"/><path d="M123.309,505.264l-21.532,0l0,-50.048l-16.128,-0l49.607,-39.22l49.606,39.22l-16.128,-0l0,50.048l-21.532,0l-0,-30.375l-23.893,0l0,30.375Z" style="fill:#fff;"/><path d="M123.309,802.902l-21.532,0l0,-50.048l-16.128,-0l49.607,-39.221l49.606,39.221l-16.128,-0l0,50.048l-21.532,0l-0,-30.375l-23.893,0l0,30.375Z" style="fill:#fff;"/><path d="M787.628,368.987l0,183.286c0,18.829 -15.286,34.115 -34.114,34.115l-665.138,-0c-18.828,-0 -34.114,-15.286 -34.114,-34.115l-0,-183.286c-0,-18.829 15.286,-34.115 34.114,-34.115l665.138,0c18.828,0 34.114,15.286 34.114,34.115Z" style="fill:#4678b7;"/><clipPath id="_clip1"><path d="M787.628,368.987l0,183.286c0,18.829 -15.286,34.115 -34.114,34.115l-665.138,-0c-18.828,-0 -34.114,-15.286 -34.114,-34.115l-0,-183.286c-0,-18.829 15.286,-34.115 34.114,-34.115l665.138,0c18.828,0 34.114,15.286 34.114,34.115Z"/></clipPath><g clip-path="url(#_clip1)"><path d="M144.536,497.874l-17.967,-0l-0,-41.762l-13.458,0l41.393,-32.726l41.392,32.726l-13.457,0l-0,41.762l-17.967,-0l-0,-25.346l-19.936,0l-0,25.346Z" style="fill:#fff;"/></g><path d="M787.628,368.987l0,183.286c0,18.829 -15.286,34.115 -34.114,34.115l-665.138,-0c-18.828,-0 -34.114,-15.286 -34.114,-34.115l-0,-183.286c-0,-18.829 15.286,-34.115 34.114,-34.115l665.138,0c18.828,0 34.114,15.286 34.114,34.115Zm-20,-0c0,-7.79 -6.324,-14.115 -14.114,-14.115l-665.138,0c-7.79,0 -14.114,6.325 -14.114,14.115l-0,183.286c-0,7.79 6.324,14.115 14.114,14.115l665.138,-0c7.79,-0 14.114,-6.325 14.114,-14.115l0,-183.286Z"/></svg>